 http://www.imdb.com/title/tt0088323/

Encoded for iPad, iPod touch(new)and iPhone4

Source 720p BRRIP

ID                               : 1
Format                           : AVC
Format/Info                      : Advanced Video Codec
Format profile                   : Main@L3.1
Format settings, CABAC           : Yes
Format settings, ReFrames        : 1 frame
Codec ID                         : avc1
Codec ID/Info                    : Advanced Video Coding
Duration                         : 1h 33mn
Bit rate mode                    : Variable
Bit rate                         : 600 Kbps
Width                            : 960 pixels
Height                           : 640 pixels
Display aspect ratio             : 16:9
Frame rate mode                  : Constant
Frame rate                       : 23.976 fps
Color space                      : YUV
Chroma subsampling               : 4:2:0
Bit depth                        : 8 bits
Scan type                        : Progressive
Bits/(Pixel*Frame)               : 0.041
Stream size                      : 402 MiB (82%)

ID                               : 2
Format                           : AAC
Format/Info                      : Advanced Audio Codec
Format version                   : Version 4
Format profile                   : LC
Format settings, SBR             : No
Codec ID                         : 40
Duration                         : 1h 33mn
Bit rate mode                    : Variable
Bit rate                         : 128 Kbps
Channel(s)                       : 2 channels
Channel positions                : Front: L R
Sampling rate                    : 44.1 KHz
Stream size                      : 86.0 MiB (18%)
Language                         : English
 
http://img407.imageshack.us/img407/5450/vlcsnap2011021423h58m24.png
 
http://img585.imageshack.us/img585/2173/vlcsnap2011021423h58m30.png
 
http://img62.imageshack.us/img62/8038/vlcsnap2011021423h58m34.png
 
http://img138.imageshack.us/img138/3511/vlcsnap2011021423h58m38.png
 
http://img543.imageshack.us/img543/5664/vlcsnap2011021423h58m42.png
 
http://img405.imageshack.us/img405/8854/vlcsnap2011021423h58m50.png


